<svg width="99" height="61" viewBox="0 0 99 61" fill="none" xmlns="http://www.w3.org/2000/svg">
<path d="M66.8102 42.3541C65.6415 42.3198 64.9948 43.6962 65.7673 44.5738L67.0031 45.9778C67.2826 46.2953 67.0571 46.7941 66.6341 46.7941V46.7941C61.0148 46.7941 56.3018 48.9687 56.3018 53.6804C56.3018 57.486 60.8335 60.5667 66.6341 60.5667C72.4347 60.5667 76.9664 57.486 76.9664 53.6804C76.9664 50.1694 72.9548 46.0414 70.4832 43.1464C70.1056 42.7041 69.5627 42.4351 68.9813 42.418L66.8102 42.3541ZM71.5284 53.4992C71.5284 55.4926 69.3531 56.9423 66.6341 56.9423C63.9151 56.9423 61.7398 55.3114 61.7398 53.4992C61.7398 51.687 63.9151 50.0561 66.6341 50.0561C69.3531 50.0561 71.5284 51.5058 71.5284 53.4992Z" fill="#1A1A1A"/>
<path d="M49.957 54.405C49.957 58.2105 43.794 58.2105 43.794 54.405V49.1563C43.794 48.0517 42.8985 47.1562 41.794 47.1562H40.5371C39.4326 47.1562 38.5371 48.0517 38.5371 49.1563V54.9486C38.5371 62.5598 55.0325 62.5598 55.0325 54.9486V49.1563C55.0325 48.0517 54.1371 47.1562 53.0325 47.1562H51.957C50.8524 47.1562 49.957 48.0517 49.957 49.1562V54.405Z" fill="#1A1A1A"/>
<path d="M81.8537 47.1543H80.2344C79.1299 47.1543 78.2344 48.0497 78.2344 49.1543V58.3832C78.2344 59.4878 79.1299 60.3832 80.2344 60.3832H81.8537C82.9583 60.3832 83.8537 59.4878 83.8537 58.3832V49.1543C83.8537 48.0497 82.9583 47.1543 81.8537 47.1543Z" fill="#1A1A1A"/>
<path d="M22.8735 42.8066C22.0394 42.8066 21.5839 43.7795 22.1179 44.4201V44.4201C22.3956 44.7533 22.4224 45.229 22.1837 45.5912L14.4779 57.2842C13.6015 58.614 14.5553 60.3848 16.1478 60.3848H17.2843C17.9867 60.3848 18.6377 60.0163 18.9991 59.4139L19.4652 58.6373C19.8267 58.035 20.4776 57.6665 21.1801 57.6665H30.5789C31.2475 57.6665 31.8719 58.0006 32.2428 58.5569L32.868 59.4944C33.2389 60.0507 33.8633 60.3848 34.5319 60.3848H35.9934C37.6058 60.3848 38.5554 58.5745 37.6388 57.2479L28.2575 43.6698C27.8841 43.1293 27.269 42.8066 26.612 42.8066H22.8735ZM25.7107 54.0421C24.1717 54.0421 23.2182 52.3667 24.004 51.0436V51.0436C24.7631 49.7655 26.6058 49.7445 27.3938 51.0049V51.0049C28.2203 52.327 27.2699 54.0421 25.7107 54.0421V54.0421Z" fill="#1A1A1A"/>
<path d="M81.4984 0.400773C78.0458 0.400773 74.729 1.35161 71.9011 3.13567C71.1262 3.6245 70.1257 3.61481 69.3592 3.11302C63.7288 -0.572707 56.4281 -0.563694 50.6686 3.14006C49.9069 3.62994 48.9194 3.63152 48.1533 3.14841C42.519 -0.40466 35.2113 -0.394262 29.4493 3.1796C28.6922 3.64919 27.7228 3.64245 26.9705 3.16517C19.4547 -1.60313 9.39956 0.0787162 3.73429 7.28706C-2.24756 14.8982 -0.61617 25.7713 6.99709 31.7515C12.7656 36.1615 20.7574 36.4438 26.9593 32.5985C27.7176 32.1283 28.6879 32.1357 29.4418 32.6129C35.0706 36.1757 42.377 36.176 48.1431 32.6137C48.9137 32.1376 49.9011 32.1542 50.6584 32.6513C56.292 36.3498 63.6037 36.3444 69.3699 32.635C70.1305 32.1457 71.1169 32.1435 71.8814 32.6267C79.3946 37.3761 89.4343 35.6902 95.0935 28.4896C101.075 20.8784 99.444 10.0053 91.8307 4.02513C88.7491 1.6693 85.305 0.581991 81.4984 0.400773ZM80.9546 33.2012C77.7815 33.2012 74.6084 32.068 72.0652 30.2213C71.2135 29.6028 70.0326 29.6043 69.1842 30.2273C66.4732 32.2178 63.1097 33.3541 59.7462 33.2012C56.5813 33.2012 53.4165 32.1991 50.8767 30.299C50.0125 29.6525 48.7953 29.6317 47.9167 30.2584C45.216 32.1848 41.8769 33.2012 38.5378 33.2012C35.243 33.2012 32.0839 32.1151 29.4133 30.0604C28.677 29.4939 27.662 29.4086 26.9992 30.0595C26.9522 30.1057 26.9069 30.1506 26.8636 30.1937C26.7914 30.2656 26.7142 30.3323 26.6314 30.3916C23.9375 32.3224 20.7241 33.2012 17.5107 33.2012C11.6754 33.2012 6.49007 29.7897 3.95487 24.6586C3.69513 24.1329 3.17806 23.7866 2.61247 23.6319V23.6319C2.17975 23.5136 1.83004 23.1687 1.69805 22.7399C-0.923119 14.2253 3.59651 5.03289 12.0727 2.03174C13.5076 1.55355 15.0828 1.21557 16.5515 1.1411C16.9333 1.12174 17.2997 1.24978 17.4814 1.58603V1.58603C17.7764 2.13182 18.2924 2.56831 18.9113 2.61221C21.8916 2.82365 24.7237 3.93684 27.0181 5.71817C27.5103 6.10026 28.2869 5.72615 28.2351 5.10526V5.10526C28.2166 4.88321 28.3092 4.66567 28.4866 4.53084C30.9993 2.62103 34.2223 1.45673 37.3523 1.17179C37.7602 1.13465 38.1598 1.26302 38.3487 1.62642V1.62642C38.6245 2.1569 39.1139 2.58782 39.7088 2.64684C42.7111 2.94469 45.5653 3.97478 47.8738 5.73714C48.4407 6.16988 49.3234 5.83565 49.3826 5.12497V5.12497C49.4025 4.88647 49.5229 4.667 49.7172 4.52731C52.382 2.61172 55.484 1.44695 58.7526 1.1683C59.1538 1.13409 59.5764 1.30999 59.7655 1.66554V1.66554C60.0082 2.12166 60.4292 2.40374 60.9434 2.45343C64.0021 2.74898 66.9147 3.89514 69.2628 5.72464C69.7513 6.10521 70.523 5.73354 70.4715 5.11647V5.11647C70.4525 4.88845 70.5516 4.66593 70.7373 4.53229C73.3442 2.65656 76.3699 1.49965 79.5608 1.1883C80.0622 1.13939 80.5343 1.45186 80.7933 1.88393V1.88393C81.0325 2.28289 81.4431 2.58591 81.9068 2.62226C89.8733 3.24677 96.0111 8.15129 96.3624 18.1601C96.1811 26.4962 89.2929 33.2012 80.9546 33.2012Z" fill="#1A1A1A"/>
<path d="M23.8042 23.741C23.3352 23.6889 23.0225 23.3467 22.8709 22.8998C22.3205 21.2772 22.0641 19.5165 22.2224 17.6175C22.2224 14.1046 23.4144 10.5918 25.6334 7.73894C25.7672 7.56691 25.9743 7.46931 26.1923 7.46931V7.46931C26.8485 7.46931 27.1429 6.68891 26.6117 6.30363C20.8086 2.09486 12.5552 2.66465 7.53975 8.01297C2.10171 13.8119 2.28295 23.0541 8.08353 28.4906C9.76357 30.1702 11.9108 31.3828 14.2364 31.984C14.5743 32.0714 14.9282 31.9429 15.1462 31.6704V31.6704C15.3712 31.3892 15.739 31.2709 16.0961 31.3182C16.6381 31.3901 17.2061 31.3901 17.8719 31.3901C20.6922 31.3901 23.6839 30.5333 26.0137 28.8197C26.1422 28.7252 26.2969 28.6718 26.4565 28.6718V28.6718C27.1014 28.6718 27.441 27.8746 27.0387 27.3706C26.3869 26.554 25.8351 25.6874 25.3834 24.7708C25.0934 24.1824 24.4562 23.8136 23.8042 23.741V23.741ZM17.6907 30.6652C10.6213 30.484 5.00195 24.685 5.00195 17.6175C5.18322 10.55 10.9838 4.93226 18.0533 4.93226C19.8261 4.93226 21.5103 5.37442 23.1062 6.07342C24.2086 6.55629 24.4667 7.94958 23.8686 8.99401C20.7701 14.4054 20.8288 21.182 24.0449 26.5416C24.5966 27.461 24.479 28.6894 23.5425 29.2114C21.705 30.2357 19.6442 30.6652 17.6907 30.6652Z" fill="#1A1A1A"/>
<path d="M30.8506 14.0903C30.7838 13.7931 30.7957 13.5055 30.9455 13.2402V13.2402C31.1965 12.7958 31.3476 12.2345 31.1393 11.7685C30.7317 10.8572 30.2613 10.0017 29.6771 9.22742C29.0347 8.37584 27.7896 8.42785 27.1567 9.28653C23.4325 14.3389 23.3433 21.3914 27.2975 26.4975C27.3655 26.5994 27.4335 26.695 27.5027 26.7866C27.8532 27.2507 28.5664 26.953 28.5664 26.3715V26.3715C28.5664 26.2187 28.6205 26.0712 28.716 25.952C30.4388 23.7992 31.4667 20.9803 31.4667 18.1615C31.3045 16.7027 31.1425 15.3889 30.8506 14.0903ZM29.752 22.5841C29.222 23.857 27.5502 23.8557 27.0234 22.5816C25.765 19.5383 25.7576 16.1178 27.0013 13.07C27.5284 11.7785 29.221 11.7913 29.7475 13.0831C31.0112 16.1839 31.0127 19.5568 29.752 22.5841Z" fill="#1A1A1A"/>
<path d="M51.8775 14.0905C51.8113 13.7931 51.8229 13.5055 51.9727 13.2402V13.2402C52.2237 12.7958 52.3749 12.2345 52.1665 11.7685C51.763 10.8663 51.2978 10.0188 50.7218 9.25064C50.0747 8.38786 48.8139 8.44996 48.1862 9.32697C44.5021 14.4745 44.5653 21.445 48.3759 26.53C48.7223 26.9924 49.4123 26.7307 49.4123 26.1529V26.1529C49.4123 26.0233 49.4521 25.897 49.5246 25.7896C51.0672 23.5028 52.0965 20.7261 52.1305 17.9412C52.1316 17.8465 52.1386 17.7521 52.1499 17.6581C52.2827 16.5592 52.1537 15.3319 51.8775 14.0905ZM50.9199 22.4653C50.4237 23.7774 48.7261 23.8017 48.199 22.5017C46.9769 19.4873 46.9769 16.1107 48.199 13.0963C48.7261 11.7963 50.4237 11.8206 50.9199 13.1327C52.0517 16.1258 52.0517 19.4723 50.9199 22.4653Z" fill="#1A1A1A"/>
<path d="M66.0465 23.6118C65.6107 23.4833 65.4545 23.1791 65.317 22.746C63.6798 17.5879 64.7414 11.8753 68.0513 7.55994C68.1845 7.38625 68.3924 7.28716 68.6113 7.28716V7.28716C69.2655 7.28716 69.563 6.50485 69.0404 6.11141C66.5776 4.25745 63.6505 3.11914 60.4704 3.11914C57.3499 3.11914 54.3513 4.09332 51.8739 5.84203C50.9699 6.48013 50.9456 7.75533 51.5931 8.65264C53.535 11.3437 54.6394 14.6614 54.4885 17.979C54.4885 21.1302 53.37 24.2814 51.5444 26.8153C50.9143 27.6899 50.9164 28.9269 51.7827 29.5684C53.1765 30.6004 54.777 31.3636 56.4723 31.8019C56.8101 31.8892 57.164 31.7607 57.382 31.4883V31.4883C57.6071 31.207 57.9748 31.0887 58.3319 31.1361C58.874 31.2079 59.4421 31.2079 60.1079 31.2079C63.1135 31.2079 65.9466 30.346 68.4391 28.622C68.5622 28.5369 68.7079 28.4897 68.8575 28.4897V28.4897C69.4744 28.4897 69.8133 27.7545 69.4423 27.2617C68.8488 26.4734 68.3161 25.6504 67.8689 24.8172C67.5358 24.1967 66.7219 23.8111 66.0465 23.6118V23.6118ZM59.9266 30.6643C58.0841 30.6643 56.2416 30.1867 54.6072 29.3701C53.6021 28.8679 53.431 27.5775 54.0018 26.6097C57.1843 21.2127 57.1886 14.4089 54.0148 9.00812C53.4406 8.03092 53.622 6.72693 54.6432 6.23519C58.1281 4.55711 62.2689 4.55711 65.7538 6.23519C66.775 6.72694 66.9565 8.03092 66.3822 9.00812C63.2362 14.3616 63.2129 21.0936 66.3124 26.4675C66.9042 27.4937 66.6674 28.8615 65.5913 29.3568C63.7996 30.1815 61.9114 30.6643 59.9266 30.6643Z" fill="#1A1A1A"/>
<path d="M94.2444 13.3688C94.4896 12.7893 94.8274 12.1639 94.5828 11.5842C92.9171 7.63636 87.3624 3.30078 81.4978 3.30078C78.3781 3.30078 75.3801 4.27453 72.9029 6.02251C71.9982 6.66094 71.9757 7.93734 72.6253 8.8341C76.5531 14.2567 76.5398 21.5889 72.5853 26.9985C71.9477 27.8708 71.9465 29.1112 72.8151 29.7538C74.2077 30.7839 75.8064 31.5457 77.4996 31.9835C77.8374 32.0709 78.1914 31.9424 78.4094 31.6699V31.6699C78.6345 31.3887 79.0023 31.2704 79.3594 31.3177C79.9014 31.3896 80.4694 31.3896 81.1353 31.3896C88.5673 31.5708 94.7303 25.5906 94.9116 18.1607C94.9116 16.8111 94.7546 15.3044 94.2942 13.9332C94.2265 13.7316 94.1616 13.5646 94.2444 13.3688V13.3688ZM81.1353 30.6647C79.2928 30.6647 77.4502 30.1871 75.8158 29.3705C74.8107 28.8683 74.6396 27.578 75.2103 26.6101C78.3879 21.2215 78.3972 14.4305 75.2382 9.03377C74.66 8.04606 74.8536 6.72821 75.8877 6.23773C81.4401 3.60401 88.2459 5.15629 91.8301 10.3683C95.818 16.1673 94.5491 24.1408 88.7486 28.1276C86.3921 29.9398 83.8543 30.6647 81.1353 30.6647Z" fill="#1A1A1A"/>
<path d="M73.0882 14.0904C73.0217 13.7931 73.0334 13.5055 73.1832 13.2402V13.2402C73.4343 12.7958 73.5854 12.2345 73.377 11.7685C72.969 10.8561 72.4979 9.99966 71.9128 9.22468C71.2708 8.37444 70.0269 8.42553 69.3937 9.28237C65.5604 14.4703 65.7559 21.6223 69.7583 26.7459C70.115 27.2025 70.8041 26.9338 70.8041 26.3544V26.3544C70.8041 26.2122 70.8516 26.0742 70.9364 25.96C72.6609 23.6364 73.5232 20.8083 73.5232 17.9802C73.5232 16.6836 73.3782 15.387 73.0882 14.0904ZM71.9848 22.5816C71.4579 23.8557 69.7879 23.8557 69.2611 22.5816C67.9953 19.5204 67.9953 16.0776 69.2611 13.0165C69.7879 11.7423 71.4579 11.7423 71.9848 13.0165C73.2505 16.0776 73.2505 19.5204 71.9848 22.5816Z" fill="#1A1A1A"/>
<path d="M44.8818 23.7153C44.5103 23.555 44.2538 23.2166 44.1203 22.8346C43.5425 21.1799 43.2698 19.3804 43.4319 17.436C43.4319 13.9254 44.6224 10.4147 46.8388 7.56277C46.9751 7.38733 47.1863 7.28784 47.4084 7.28784V7.28784C48.0718 7.28784 48.3764 6.50129 47.8469 6.1017C42.7925 2.2871 35.9373 2.2352 30.8441 5.84126C29.9418 6.48014 29.9183 7.75497 30.5654 8.65146C32.5081 11.3429 33.613 14.6613 33.4621 17.9797C33.4621 21.1709 32.315 24.362 30.4483 27.0189C29.8428 27.8806 29.8638 29.0832 30.7073 29.7138C32.0848 30.7436 33.6668 31.5096 35.3444 31.9572C35.7278 32.0595 36.0864 31.8957 36.349 31.5981V31.5981C36.5513 31.3689 36.9058 31.259 37.2081 31.3042C37.7797 31.3898 38.3756 31.3898 39.0814 31.3898C42.0708 31.3898 44.8896 30.5371 47.2068 28.8318C47.346 28.7294 47.5135 28.6716 47.6863 28.6716V28.6716C48.3597 28.6716 48.7311 27.868 48.3261 27.33C47.7537 26.5696 47.2253 25.7783 46.7411 24.9777C46.3651 24.3563 45.6763 24.0214 44.9978 23.7624C44.9588 23.7475 44.9201 23.7318 44.8818 23.7153ZM38.7189 30.665C36.8819 30.665 35.045 30.2852 33.4143 29.5256C32.3958 29.0511 32.2233 27.7594 32.794 26.7916C35.9765 21.3946 35.9809 14.5908 32.8071 9.19002C32.2329 8.21282 32.414 6.90846 33.4338 6.41382C36.8845 4.7401 40.9159 4.7401 44.3666 6.41382C45.3864 6.90846 45.5675 8.21282 44.9933 9.19001C41.8563 14.5282 41.8242 21.237 44.8969 26.6032C45.4949 27.6477 45.2351 29.0386 44.1269 29.5082C42.4561 30.2162 40.6324 30.665 38.7189 30.665Z" fill="#1A1A1A"/>
</svg>
