<svg width="85" height="85" viewBox="0 0 85 85" fill="none" xmlns="http://www.w3.org/2000/svg">
<path d="M42.6423 0.0878906C19.2587 0.0878906 0.225586 19.1158 0.225586 42.3117C0.225586 65.5076 19.2587 84.7167 42.461 84.7167C65.8446 84.7167 84.8778 65.6888 84.8778 42.4929C84.8778 18.9346 65.8446 0.0878906 42.6423 0.0878906ZM42.6423 83.4481C19.9838 83.4481 1.49449 64.9639 1.49449 42.3117C1.49449 19.6594 19.9838 1.1752 42.6423 1.1752C65.3008 1.1752 83.7902 19.6594 83.7902 42.3117C83.6089 65.1451 65.3008 83.4481 42.6423 83.4481Z" fill="#1A1A1A"/>
<path d="M17.9031 25.696C18.2928 25.7739 18.6944 25.6376 18.9561 25.3386L21.0708 22.9225L21.9771 21.8352C22.2982 21.5142 22.3349 21.0512 22.2132 20.6977C22.1824 20.6082 22.1464 20.5199 22.1042 20.4352C21.8842 19.9934 21.3869 19.8418 20.8895 19.8418C20.5613 19.8418 20.233 19.9903 19.9048 20.2874C19.8346 20.3509 19.7734 20.4234 19.7166 20.4992L18.7143 21.8352L17.2095 23.8411C16.8338 24.3418 16.9164 25.0491 17.3974 25.4497L17.4101 25.4604C17.5522 25.5788 17.7217 25.6598 17.9031 25.696V25.696Z" fill="#1A1A1A"/>
<path d="M42.6415 1.90234C20.3455 1.90234 2.21875 20.0241 2.21875 42.3139C2.21875 64.6038 20.3455 82.7256 42.6415 82.7256C64.9375 82.7256 83.0644 64.6038 83.0644 42.3139C83.0644 20.0241 64.9375 1.90234 42.6415 1.90234ZM36.0077 6.14193C36.07 5.16109 36.8357 4.37086 37.8141 4.2777L38.3498 4.22669C39.2718 4.13891 40.1335 4.6956 40.4324 5.57218L40.7486 6.49944C41.3644 8.30542 43.9186 8.30543 44.5345 6.49945L44.8507 5.57217C45.1496 4.69559 46.0113 4.13891 46.9333 4.22669L47.4137 4.27244C48.416 4.36788 49.1911 5.19358 49.2231 6.19995L49.4758 14.1569C49.5041 15.0493 48.7287 15.756 47.8428 15.6453L47.7085 15.6285C47.0848 15.5506 46.6076 15.0353 46.5777 14.4074V14.4074C46.5103 12.9932 44.5456 12.7008 44.0693 14.034L43.8806 14.5623C43.6811 15.1209 43.152 15.4937 42.5588 15.4937H42.3617C41.7686 15.4937 41.2395 15.1209 41.0399 14.5623L40.8512 14.0341C40.3749 12.7007 38.4102 12.9932 38.3428 14.4074V14.4074C38.3129 15.0353 37.8357 15.5506 37.212 15.6285L37.1003 15.6425C36.2128 15.7534 35.4433 15.0294 35.5 14.1368L36.0077 6.14193ZM10.5571 23.2861L9.66871 22.5756C9.65709 22.5663 9.64265 22.5612 9.62777 22.5612V22.5612C9.56936 22.5612 9.54011 22.4906 9.58142 22.4493L9.65075 22.38L12.0072 19.4805L14.7262 16.0373L15.0752 15.5721C15.2042 15.4002 15.296 15.2039 15.3972 15.0142C15.6001 14.6339 15.9202 14.3709 16.3576 14.2252C17.7601 13.6994 19.3322 14.3601 19.7619 15.7156C19.7912 15.808 19.7867 15.9076 19.811 16.0015C19.8248 16.0548 19.859 16.0939 19.9442 16.1797C19.9696 16.2052 19.9891 16.2363 19.9998 16.2707C20.1298 16.687 20.1534 17.1 20.0707 17.428C20.0591 17.4738 20.1309 17.5205 20.1643 17.4871V17.4871C21.4332 16.3998 23.4271 16.7622 24.5147 18.0307C24.8772 18.3932 25.0585 18.9368 25.0585 19.4805C25.0585 19.7051 25.0585 19.9993 25.0585 20.2768C25.0585 20.5873 24.9878 20.8944 24.8457 21.1706C24.5481 21.749 24.2277 22.3045 23.7896 22.7424L21.0706 26.1856L18.7142 29.085V29.085C18.611 29.1882 18.4467 29.1973 18.3327 29.1062L17.6265 28.5414L14.1825 25.8231L10.5571 23.2861ZM42.6415 67.6845C28.6839 67.6845 17.4453 56.449 17.4453 42.4952C17.4453 28.5414 28.6839 17.3059 42.6415 17.3059C56.5992 17.3059 67.8378 28.5414 67.8378 42.4952C67.8378 56.449 56.4179 67.6845 42.6415 67.6845ZM68.1024 28.7602C67.2322 29.1502 66.2082 28.8164 65.735 27.9885L65.6919 27.9131C65.3451 27.3064 65.404 26.5438 65.8331 25.9922V25.9922C66.9341 24.5771 65.4231 22.597 63.7962 23.3507V23.3507C63.1701 23.6408 62.431 23.5261 61.9223 23.0599L61.844 22.9882C61.1319 22.3356 61.0343 21.248 61.6188 20.4791L66.5002 14.058C67.0236 13.3695 68.0254 13.2796 68.663 13.8639L68.7432 13.9374C69.2573 14.4085 69.3281 15.1936 68.9066 15.7491V15.7491C68.0582 16.8672 69.267 18.3769 70.5435 17.7935L70.9491 17.6081C71.5684 17.3251 72.301 17.5068 72.7162 18.0464L73.1464 18.6056C73.5434 19.1215 73.544 19.8399 73.1478 20.3565L72.9068 20.6708C72.0592 21.7761 73.2541 23.2795 74.5222 22.7032V22.7032C75.1512 22.4173 75.8945 22.6575 76.2374 23.2574L76.2884 23.3465C76.7138 24.0908 76.4045 25.0397 75.6222 25.3903L68.1024 28.7602Z" fill="#1A1A1A"/>
<path d="M18.3051 18.6229C18.3291 18.5951 18.3565 18.554 18.3641 18.5181C18.5143 17.8119 18.152 17.123 17.4452 17.123C17.3791 17.123 17.2889 17.123 17.1921 17.123C16.8817 17.123 16.5558 17.1718 16.3271 17.3816C16.2446 17.4572 16.1743 17.5426 16.1086 17.6455C16.0255 17.7754 15.9451 17.9077 15.8464 18.0262L13.276 21.1098V21.1098C13.1822 21.2036 13.1977 21.3597 13.308 21.4332L13.6385 21.6535V21.6535C14.4467 22.2595 15.59 22.1143 16.2211 21.3256L16.5388 20.9286L17.6143 19.5846C17.7353 19.4334 18.1785 18.7695 18.3051 18.6229V18.6229Z" fill="#1A1A1A"/>
<path d="M18.6762 40.2611C18.5519 41.3806 19.4642 42.3133 20.5905 42.3133H40.4615C41.5661 42.3133 42.4615 41.4179 42.4615 40.3133V20.4489C42.4615 19.3226 41.5288 18.4103 40.4094 18.5345C29.0009 19.8009 19.9433 28.8559 18.6762 40.2611Z" fill="#1A1A1A"/>
<path d="M-nan -nanL42.6426 66.4149C55.0021 66.0717 65.0858 56.6275 66.4279 44.5464C66.5523 43.4269 65.64 42.4941 64.5136 42.4941H44.6426C43.538 42.4941 42.6426 43.3896 42.6426 44.4941V66.4149L-nan -nanL-nan -nanZ" fill="#1A1A1A"/>
</svg>
