<svg width="93" height="56" viewBox="0 0 93 56" fill="none" xmlns="http://www.w3.org/2000/svg">
<path d="M13.7869 12.9259C11.9742 15.463 11.4305 18.7249 12.3368 21.6244C13.2431 23.9802 14.6933 26.1548 16.6872 27.7858C19.225 29.9604 22.3066 31.7726 25.3881 32.8599C31.5512 35.2157 38.0769 36.303 44.6025 36.4842C47.8653 36.6655 50.9469 36.4842 54.2097 36.1218C57.4725 35.7594 60.7354 35.2157 63.9982 34.3096C68.1674 33.2223 72.1553 31.4102 75.7807 29.0543C77.9559 27.6046 79.9498 25.7924 81.3999 23.4366C82.8501 21.2619 83.2126 18.7249 82.6688 16.1878C82.125 14.0132 81.0374 12.2011 79.5872 10.5701C77.412 8.21426 74.6931 6.40208 71.6115 5.13355C68.1674 3.50259 64.3607 2.41527 60.5541 1.6904C57.8351 1.14674 55.2974 0.784322 52.5784 0.603104L50.7657 0.421875H44.9651H44.6025C43.5149 0.421875 42.6086 0.603104 41.521 0.603104C38.2582 0.96554 35.1766 1.32796 32.095 2.23405C27.7446 3.14014 23.7567 4.95232 19.9501 7.12693C17.5936 8.57668 15.4183 10.5701 13.7869 12.9259ZM54.9348 25.43C54.391 28.3294 52.9409 30.8665 50.7657 32.6787C50.0406 33.4036 48.953 33.766 47.8654 33.766C47.2722 33.766 46.679 33.766 46.1851 33.8652C45.9744 33.9075 45.7618 33.9475 45.5469 33.9462C43.1173 33.9311 40.6877 33.7428 38.2581 33.2223C35.7204 32.8599 33.3639 32.4975 30.8262 31.7726C29.9198 31.5914 29.1947 31.2289 28.4697 31.0477C27.7446 30.8665 27.7446 30.3228 28.2884 29.9604C33.5452 25.9736 39.527 23.0741 45.8714 21.6244C47.5028 21.2619 49.3155 20.8995 50.9469 21.0807C52.1513 21.0807 53.3557 21.5705 54.095 22.5501C54.1744 22.6553 54.2586 22.7569 54.344 22.8572C54.9568 23.5769 55.1043 24.5827 54.9348 25.43ZM71.4302 11.8386L72.3365 10.2076C72.6991 9.48276 73.0617 9.30157 73.7868 9.664C77.0496 11.1137 79.406 14.1944 79.7686 17.6376C79.7686 17.8188 79.7686 18.1812 79.7686 18.5437C79.7686 20.3559 79.0435 22.168 77.9559 23.6178C76.3245 25.6112 74.5118 27.0609 72.1553 28.3294C68.3808 30.306 64.4282 31.748 60.2973 32.4789C60.227 32.4914 60.1559 32.4982 60.0845 32.4965V32.4965C59.755 32.4887 59.4456 32.1592 59.542 31.844C59.5539 31.8052 59.5693 31.7637 59.5882 31.7192C59.6249 31.6328 59.6761 31.5536 59.7324 31.4785C60.248 30.7908 60.7636 30.0946 61.2792 29.2355C63.2732 26.5173 65.0858 23.6178 66.7172 20.5371C68.5299 17.8188 69.98 14.7381 71.4302 11.8386ZM43.1524 4.95232C44.4213 3.6838 46.0527 2.95892 47.8654 2.95892C52.5783 2.7777 57.1101 3.32137 61.6418 4.58989C62.8507 4.9352 63.895 5.28049 65.0884 5.6258C65.2072 5.66016 65.3228 5.705 65.4334 5.76028C65.7405 5.9138 66.0476 6.06732 66.3547 6.22084C66.7172 6.40206 66.7172 6.7645 66.7172 7.12693V7.12693C66.7172 7.31099 66.463 7.38121 66.3328 7.51134C66.2157 7.62833 66.0838 7.7602 65.971 7.87295C65.8646 7.97933 65.7463 8.07289 65.6179 8.15141C60.9595 11.0015 55.9508 13.4918 50.7657 15.1005C48.7717 15.8254 46.7777 16.1878 44.6025 16.3691C43.6962 16.3691 42.7898 16.3691 41.8835 16.0066C40.6146 15.463 39.8895 14.0132 40.0708 12.5635C40.2521 9.66399 41.3397 6.94572 43.1524 4.95232ZM33.0014 4.7711C33.7264 4.58988 34.4515 4.58989 35.1766 4.58989C35.6662 4.58989 35.8619 4.88366 35.6315 5.20673C35.5765 5.28378 35.5106 5.35284 35.4536 5.42837C34.3946 6.83099 33.3402 8.06626 32.4576 9.30154C28.6509 14.1944 25.7507 19.631 23.5755 25.2487C23.4175 25.7225 23.2595 26.1964 22.9815 26.5502C22.9001 26.6538 22.8159 26.7556 22.7338 26.8586C22.375 27.3085 21.8701 27.5676 21.2189 27.2421C20.3126 26.8797 19.5875 26.336 18.8625 25.6112C17.2311 24.1614 16.1435 22.5305 15.4184 20.5371C15.2453 19.8448 15.0721 18.9871 14.899 18.28C14.8867 18.2297 14.9246 18.1812 14.9763 18.1812V18.1812C15.0202 18.1812 15.0558 18.1455 15.0563 18.1016C15.08 16.1396 15.9791 14.3563 17.2311 12.9259C18.6812 11.2949 20.4939 9.84522 22.4878 8.75791C25.7507 7.12695 29.376 5.67719 33.0014 4.7711Z" fill="#1A1A1A"/>
<path d="M70.7609 41.8054C70.6043 41.7584 70.4406 41.7402 70.2771 41.7402C70.1068 41.7402 69.9149 41.7402 69.7982 41.7402H60.0097V41.7402C59.7093 41.7402 59.4659 41.9837 59.4659 42.284V54.7879V54.7879C59.4659 55.0882 59.7093 55.3316 60.0095 55.3316H70.3801C70.595 55.3316 70.8085 55.2969 71.0123 55.229L71.2483 55.1504C72.1547 54.9692 72.6984 54.2443 72.6984 53.3382C72.6984 53.129 72.7588 52.9199 72.775 52.7107C72.799 52.4011 72.6984 52.0892 72.6984 51.7786C72.6984 50.3051 72.6984 48.8315 72.6984 47.358C72.6984 46.4519 72.6984 45.3646 72.6984 44.4585C72.5274 42.9199 72.0338 42.1877 70.7609 41.8054ZM68.5933 50.684C68.6273 50.7179 68.7108 50.8283 68.7096 50.8763C68.6897 51.7273 68.3226 52.0697 67.4417 52.0697H65.4538C64.3492 52.0697 63.4538 51.1742 63.4538 50.0697V47.0022C63.4538 45.8976 64.3492 45.0022 65.4538 45.0022C66.1618 45.0022 66.8678 45.0022 67.6229 45.0022C68.1668 45.0022 68.5293 45.3646 68.5293 45.9083C68.5293 46.0895 68.5293 46.2707 68.5293 46.4519C68.5293 47.8409 68.5293 49.0636 68.5293 50.4386C68.5293 50.5387 68.5226 50.6132 68.5933 50.684V50.684Z" fill="#1A1A1A"/>
<path d="M87.3815 42.1023V41.9212C87.3815 41.7209 87.2191 41.5586 87.0189 41.5586V41.5586H77.5929H77.2304C75.599 41.5586 74.5114 42.8271 74.3301 44.2769C74.3301 47.2311 74.3301 50.065 74.3301 52.9748C74.3301 54.076 75.2229 54.9687 76.3241 54.9687H76.8683C77.669 54.9687 78.3181 54.3197 78.3181 53.519V53.519C78.3181 52.7183 78.9671 52.0692 79.7678 52.0692H82.125C82.9257 52.0692 83.5748 52.7183 83.5748 53.519V53.519C83.5748 54.3197 84.2238 54.9687 85.0245 54.9687H86.8378C87.1381 54.9687 87.3815 54.7253 87.3815 54.4251V54.4251C87.3815 50.6195 87.3815 46.2703 87.3815 42.1023ZM83.4798 46.9951C83.4315 48.0096 82.5949 48.8073 81.5792 48.8073H80.3181C79.2135 48.8073 78.3181 47.9119 78.3181 46.8073C78.3181 46.4971 78.3181 46.1934 78.3181 45.9078C78.3181 45.3642 78.6806 45.0018 79.2244 45.0018C80.312 45.0018 81.2183 45.0018 82.3059 45.0018V45.0018C82.9967 45.0018 83.5473 45.5792 83.5144 46.2692L83.4798 46.9951Z" fill="#1A1A1A"/>
<path d="M42.2454 41.5586C41.1578 41.5586 40.0702 41.5586 38.9826 41.5586C38.6201 41.5586 38.6201 41.7398 38.6201 42.1023C38.6201 45.0017 38.6201 48.0824 38.6201 50.9819C38.6201 51.7068 38.4388 51.888 37.7137 51.888H35.5446C34.44 51.888 33.5446 50.9926 33.5446 49.888V43.5526C33.5446 42.4513 32.6519 41.5586 31.5506 41.5586H30.1003C29.8001 41.5586 29.5567 41.802 29.5567 42.1023V42.1023C29.5567 44.6393 29.5567 47.3576 29.5567 49.8946C29.5567 51.0207 29.5567 52.0768 29.5567 53.15C29.5567 54.2545 30.4521 55.15 31.5567 55.15H40.7953V55.15C40.9158 55.15 41.0366 55.1402 41.1528 55.1079C41.9967 54.8731 42.7892 54.1733 42.7892 53.1566C42.7892 52.7941 42.7892 52.4317 42.7892 52.2505C42.7892 48.8073 42.7892 45.5454 42.7892 42.1023V42.1023C42.7892 41.802 42.5457 41.5586 42.2454 41.5586V41.5586Z" fill="#1A1A1A"/>
<path d="M57.6525 47.1767C57.6525 46.0894 57.6525 45.0022 57.6525 44.0961C57.6525 43.0088 56.9274 42.2839 56.021 41.9214C55.4772 41.7402 54.9335 41.7402 54.3897 41.7402C51.1269 41.7402 48.0453 41.7402 44.7825 41.7402V41.7402C44.5823 41.7402 44.42 41.9025 44.42 42.1027V45.5458C44.42 48.1431 44.42 50.7403 44.42 53.3376C44.42 54.4388 45.3127 55.3316 46.4139 55.3316H48.4078V55.3316C48.4078 51.8884 48.4078 48.6265 48.4078 45.1834V45.0022V45.0022V45.0022H48.5891H52.577C53.1208 45.0022 53.4834 45.1834 53.4834 45.9083C53.4834 48.989 53.4834 52.0697 53.4834 55.1504V55.1504C53.4834 55.2504 53.5645 55.3316 53.6645 55.3316H57.4713C57.5714 55.3316 57.6525 55.2504 57.6525 55.1504V55.1504C57.6525 52.4321 57.6525 49.895 57.6525 47.1767Z" fill="#1A1A1A"/>
<path d="M9.2544 41.5582C8.89186 41.5582 9.07317 41.7394 9.07317 41.9206V44.451C9.07317 45.5556 8.17774 46.451 7.07317 46.451H5.81635C4.71178 46.451 3.81635 45.5556 3.81635 44.451V43.4614C3.81635 42.4103 2.96422 41.5582 1.91306 41.5582V41.5582C0.861899 41.5582 0.00976562 42.4103 0.00976562 43.4614V53.2462C0.00976562 54.2974 0.861899 55.1495 1.91306 55.1495V55.1495C2.96422 55.1495 3.81635 54.2974 3.81635 53.2462V51.8942C3.81635 50.7896 4.71178 49.8942 5.81635 49.8942H7.07317C8.17774 49.8942 9.07317 50.7896 9.07317 51.8942V53.1556C9.07317 54.2568 9.96589 55.1495 11.0671 55.1495H12.8798C12.9799 55.1495 13.061 55.0684 13.061 54.9683V54.9683V41.7394V41.7394C13.061 41.5421 12.8961 41.3848 12.699 41.3942L9.2544 41.5582Z" fill="#1A1A1A"/>
<path d="M25.1664 41.7207C25.0725 41.7322 24.9751 41.7336 24.8876 41.7697C24.8739 41.7753 24.8604 41.7815 24.8474 41.7881C24.7124 41.8567 24.6228 41.9857 24.5409 42.1131C23.6649 43.4762 22.6399 44.6901 21.7768 46.0661C21.7676 46.0808 21.7629 46.1038 21.7606 46.121V46.121C21.7475 46.2178 21.4497 46.1877 21.406 46.1003L21.4001 46.0886L18.9871 42.1254C18.9043 41.9893 18.8084 41.8605 18.69 41.754C18.5662 41.6427 18.4424 41.5582 18.3186 41.5582H14.6932H14.6419C14.4602 41.5582 14.3692 41.7778 14.4977 41.9063V41.9063C14.5072 41.9158 14.5157 41.9262 14.5232 41.9374C15.9696 44.1064 17.416 46.2754 18.8624 48.4444C19.5875 49.3505 19.7687 50.2566 19.7687 51.3439C19.7687 51.8923 19.7687 52.4407 19.7687 52.9744C19.7687 54.0756 20.6615 54.9683 21.7627 54.9683V54.9683C22.8639 54.9683 23.7566 54.0756 23.7566 52.9744C23.7566 51.9863 23.7566 50.9723 23.7566 49.8942C23.7566 49.761 23.7566 49.6279 23.8285 49.4948C23.8859 49.3884 23.9724 49.3005 24.0411 49.2011L29.1381 41.8213C29.1749 41.7679 29.1869 41.7009 29.2166 41.6433C29.2414 41.5951 29.2828 41.5636 29.3172 41.525C29.3773 41.4577 29.3028 41.377 29.2126 41.377V41.377C29.2007 41.377 29.1886 41.3783 29.177 41.3809C27.6144 41.7248 26.3842 41.5714 25.1664 41.7207Z" fill="#1A1A1A"/>
<path d="M89.1934 42.1034C89.1934 46.2715 89.1934 50.4395 89.1934 54.7887V54.7887C89.1934 55.0889 89.4368 55.3323 89.7371 55.3323H91.0967C92.1479 55.3323 93 54.4802 93 53.429V43.741C93 42.6364 92.1046 41.741 91 41.741C90.7364 41.741 90.4728 41.741 90.2092 41.741C89.8988 41.741 89.5114 41.5206 89.2982 41.7462C89.2283 41.8202 89.1934 41.9443 89.1934 42.1034Z" fill="#1A1A1A"/>
</svg>
