<svg width="125" height="85" viewBox="0 0 125 85" fill="none" xmlns="http://www.w3.org/2000/svg">
<path d="M120.543 23.8274H105.861C103.867 23.6462 102.235 22.5589 101.329 20.7467C93.5344 8.06148 78.4891 0.0878906 62.3562 0.0878906C45.5392 0.0878906 30.3458 8.38347 22.7141 21.7364C22.6776 21.8003 22.6585 21.8727 22.6585 21.9463V21.9463C22.6585 21.992 22.6514 22.0374 22.6359 22.0804C22.2721 23.084 21.2944 23.9154 20.2851 23.8467C20.1753 23.8392 20.0654 23.8274 19.9553 23.8274H3.98789C1.81268 23.8274 0 25.6396 0 27.8142V54.0908C0 56.2655 1.81268 58.0776 3.98789 58.0776H17.2362C17.3464 58.0776 17.4565 58.0858 17.5645 58.1075C18.5965 58.3145 19.6041 58.8568 20.1207 59.8898C20.2853 60.2187 20.599 60.5476 20.9266 60.8766C20.9934 60.9436 21.0553 61.015 21.1126 61.0903C21.6615 61.8115 22.4956 62.8261 22.8398 63.5142C31.5406 76.9243 46.4047 85.0791 62.5375 84.8979C78.2524 84.8979 92.5273 78.06 100.699 66.5358C100.756 66.4547 100.806 66.3681 100.858 66.2831C101.053 65.9618 101.372 65.6237 101.691 65.1451C102.96 63.333 104.229 61.3396 105.317 59.3462C106.042 58.0776 106.404 57.8964 107.492 57.8964H120.725C122.9 57.8964 124.713 56.0842 124.713 53.9096V27.7986C124.713 27.6884 124.704 27.5781 124.682 27.4701C124.259 25.3774 122.487 23.8274 120.543 23.8274ZM20.8458 24.9147C22.0359 24.7448 23.0666 23.9372 23.4891 22.6414C23.5455 22.4683 23.6104 22.297 23.7017 22.1395C31.1783 9.23301 45.9604 1.35642 62.175 1.35642C78.1266 1.35642 92.628 8.96757 100.241 21.4716C101.306 23.4223 103.238 24.6788 105.528 25.0714C105.629 25.0886 105.73 25.096 105.832 25.096H120.362V25.096C121.256 25.096 121.376 26.2258 120.728 26.8414L119.335 28.164C118.755 28.7155 117.9 28.7203 117.099 28.7203V28.7203H7.06945V28.7203C6.29846 28.7203 5.46236 28.639 4.99503 28.0258L3.46601 26.0195C3.17228 25.6341 3.32203 25.096 3.80661 25.096V25.096L20.8458 24.9147ZM28.049 67.6116C28.3852 68.1709 27.9444 68.5666 27.5528 68.0446V68.0446C26.6464 66.7761 25.5588 65.5076 24.6525 64.239C23.7461 62.9705 22.8398 61.702 22.1147 60.6147C21.3896 59.5274 20.8458 58.4401 20.6646 58.2589C19.9887 57.4142 19.9428 56.2547 20.3802 55.2205C20.4439 55.0699 20.5363 54.9333 20.6464 54.8124C21.4879 53.888 22.5233 53.1673 23.5997 52.6504C24.1405 52.3907 24.772 52.4535 25.2907 52.755L32.0294 56.6718C32.1694 56.7531 32.2387 56.9172 32.1994 57.0743V57.0743C32.1414 57.3062 31.8792 57.42 31.6702 57.3039L29.9213 56.3326C28.3956 55.4852 26.7355 56.9369 27.5435 58.4839C33.8536 70.5662 47.1874 78.9177 62.5375 78.9177C76.7069 79.0805 89.7056 71.1973 96.2746 58.9483C97.0513 57.4999 95.5075 56.0896 94.056 56.8605L92.7376 57.5607C92.5782 57.6454 92.3802 57.5821 92.2994 57.4206L92.295 57.4117C92.2756 57.3729 92.2662 57.3236 92.2648 57.2803V57.2803C92.2589 57.098 92.2372 56.8999 92.3943 56.8072L98.8827 52.9742C99.5925 52.5548 100.487 52.614 101.135 53.1233L103.967 55.3475C104.661 55.8925 104.923 56.8299 104.544 57.6266C102.69 61.5242 98.8887 66.6891 93.8889 66.8251C93.2146 66.8434 92.5514 67.0904 92.1034 67.5947C84.6764 75.9557 73.7771 80.5374 62.5375 80.1862C50.8914 80.3653 39.5995 75.7641 31.2875 67.4326C31.0963 67.241 30.86 67.0994 30.5997 67.0251L28.4664 66.4157C27.9779 66.2762 27.5653 66.7797 27.8187 67.22C27.8942 67.3512 27.971 67.4818 28.049 67.6116ZM91.1779 58.1782C91.1779 58.2315 91.1685 58.2852 91.1504 58.3352C86.7712 70.4202 73.3904 75.1125 62.3562 75.2933C51.2989 75.1121 37.885 70.5817 33.5346 58.2589C33.3533 57.8964 33.3533 57.7152 33.5346 57.7152C33.7159 57.7152 33.5346 57.7152 33.7159 57.7152H90.9966V57.7152C91.0967 57.7152 91.1779 57.7962 91.1779 57.8963C91.1779 57.9687 91.1779 58.0626 91.1779 58.1782ZM118.549 30.7137V48.6543C118.549 49.3792 118.006 49.9228 117.28 49.9228H7.06945C6.34437 49.9228 5.80058 49.3792 5.80058 48.6543V30.7137C5.80058 29.9889 6.34437 29.4452 7.06945 29.4452H117.28C117.824 29.4452 118.368 29.9889 118.549 30.7137C118.368 30.7137 118.368 30.7137 118.549 30.7137Z" fill="#1A1A1A"/>
<path d="M33.7165 27.6334H91.9036C92.7348 27.6334 93.062 27.3185 93.1347 26.8856C93.2843 25.9952 93.7937 25.1311 94.6416 25.441V25.441C95.751 25.8466 97.1827 24.7301 96.6816 23.6605C90.635 10.7538 77.549 4.4375 62.3569 4.4375C47.2978 4.4375 34.3081 11.8259 28.1926 23.9339C27.6076 25.0922 29.0734 26.2913 30.2808 25.8159V25.8159C31.0791 25.5015 31.8749 26.185 32.3558 26.8956C32.6508 27.3313 33.0973 27.6334 33.7165 27.6334ZM33.8978 24.5527C38.7921 11.8674 50.0307 7.51821 62.1757 7.51821C74.7644 7.51821 87.5315 11.6207 91.8034 24.2499C91.8705 24.4482 91.9036 24.6593 91.9036 24.8686V24.9151V24.9151C91.9036 24.8625 91.9613 24.8572 91.9653 24.9096C92.0018 25.3965 91.7728 25.64 91.1786 25.64H34.9854C34.2604 25.64 33.5353 25.4588 33.8978 24.5527Z" fill="#1A1A1A"/>
<path d="M26.6467 33.5217C26.6467 35.6164 23.7559 36.1733 22.9777 34.2285L22.4367 32.8762C22.1329 32.117 21.3975 31.6191 20.5798 31.6191H16.8643C15.7597 31.6191 14.8643 32.5146 14.8643 33.6191V45.0227C14.8643 46.1272 15.7597 47.0227 16.8643 47.0227H17.2422C18.3316 47.0227 19.2147 46.1396 19.2147 45.0502V45.0502C19.2147 42.8813 22.2057 42.3012 23.0166 44.3128L23.6042 45.7704C23.9092 46.5271 24.6433 47.0227 25.4591 47.0227H28.9971C30.1017 47.0227 30.9971 46.1272 30.9971 45.0227V33.6191C30.9971 32.5146 30.1017 31.6191 28.9971 31.6191H28.5492C27.4985 31.6191 26.6467 32.4709 26.6467 33.5217V33.5217Z" fill="#1A1A1A"/>
<path d="M36.7918 31.6191H36.4414C35.3368 31.6191 34.4414 32.5146 34.4414 33.6191V45.0227C34.4414 46.1272 35.3368 47.0227 36.4414 47.0227H36.7918C37.8964 47.0227 38.7918 46.1272 38.7918 45.0227V33.6191C38.7918 32.5146 37.8964 31.6191 36.7918 31.6191Z" fill="#1A1A1A"/>
<path d="M80.2671 31.6191C79.4192 31.6191 78.6634 32.1538 78.3811 32.9533L74.3553 44.3569C73.8959 45.6581 74.8612 47.0227 76.2412 47.0227H76.4106C77.2284 47.0227 77.9637 46.5249 78.2675 45.7656L78.3492 45.5614C78.653 44.8022 79.3884 44.3044 80.2061 44.3044H82.7274C83.9252 44.3044 84.7569 43.1115 84.3427 41.9875V41.9875C84.0934 41.3108 83.4486 40.8613 82.7274 40.8613H81.9722C80.9764 40.8613 80.2769 39.8809 80.6006 38.9393V38.9393C81.0452 37.6465 82.8678 37.6303 83.3351 38.9151L85.8053 45.7063C86.0928 46.4966 86.8439 47.0227 87.6849 47.0227H87.8075C89.1875 47.0227 90.1529 45.6581 89.6935 44.3569L85.6676 32.9533C85.3853 32.1538 84.6296 31.6191 83.7817 31.6191H80.2671Z" fill="#1A1A1A"/>
<path d="M50.7559 37.6009H47.4927C46.7921 37.6009 46.2241 37.033 46.2241 36.3324V36.3324C46.2241 35.6318 46.7921 35.0639 47.4927 35.0639H53.2035C54.1543 35.0639 54.925 34.2931 54.925 33.3423V33.3423C54.925 32.3915 54.1543 31.6207 53.2035 31.6207H46.0429C43.9225 31.4441 42.1466 32.8172 41.7226 34.9009C41.7006 35.0088 41.6924 35.1193 41.6924 35.2295C41.6924 35.4908 41.6924 35.6671 41.6924 35.97C41.6924 37.6009 41.8737 41.0441 46.9492 41.0441H50.3937C51.0943 41.0441 51.6622 41.612 51.6622 42.3126V42.3126C51.6622 43.0132 51.0943 43.5811 50.3937 43.5811H43.9578C43.007 43.5811 42.2363 44.3519 42.2363 45.3027V45.3027C42.2363 46.2535 43.007 47.0243 43.9578 47.0243H51.8434C54.3812 47.0243 56.3751 44.8496 56.3751 42.4938V42.3126C56.1939 39.2319 54.5625 37.6009 50.7559 37.6009Z" fill="#1A1A1A"/>
<path d="M104.048 33.5217C104.048 35.6164 101.157 36.1733 100.379 34.2284L99.8381 32.8762C99.5343 32.117 98.799 31.6191 97.9812 31.6191H94.2657C93.1611 31.6191 92.2657 32.5146 92.2657 33.6191V45.0227C92.2657 46.1272 93.1611 47.0227 94.2657 47.0227H94.6437C95.733 47.0227 96.6161 46.1396 96.6161 45.0502V45.0502C96.6161 42.8814 99.6072 42.3012 100.418 44.3128L101.006 45.7704C101.311 46.5271 102.045 47.0227 102.861 47.0227H106.399C107.503 47.0227 108.399 46.1272 108.399 45.0227V33.6191C108.399 32.5146 107.503 31.6191 106.399 31.6191H105.951C104.9 31.6191 104.048 32.4709 104.048 33.5217V33.5217Z" fill="#1A1A1A"/>
<path d="M67.0693 37.6009H63.8061C63.1056 37.6009 62.5376 37.033 62.5376 36.3324V36.3324C62.5376 35.6318 63.1056 35.0639 63.8062 35.0639H69.5169C70.4677 35.0639 71.2385 34.2931 71.2385 33.3423V33.3423C71.2385 32.3915 70.4677 31.6207 69.5169 31.6207H62.3563C60.2359 31.4441 58.4601 32.8172 58.0361 34.9009C58.0141 35.0088 58.0059 35.1193 58.0059 35.2295C58.0059 35.4908 58.0059 35.6671 58.0059 35.97C58.0059 37.6009 58.1872 41.0441 63.2627 41.0441H66.7071C67.4077 41.0441 67.9757 41.612 67.9757 42.3126V42.3126C67.9757 43.0132 67.4077 43.5811 66.7071 43.5811H60.2713C59.3205 43.5811 58.5497 44.3519 58.5497 45.3027V45.3027C58.5497 46.2535 59.3205 47.0243 60.2713 47.0243H68.1569C70.6947 47.0243 72.6886 44.8496 72.6886 42.3126V42.1314C72.6886 39.2319 71.0572 37.6009 67.0693 37.6009Z" fill="#1A1A1A"/>
</svg>
