<svg width="157" height="59" viewBox="0 0 157 59" fill="none" xmlns="http://www.w3.org/2000/svg">
<path d="M76.9436 51.7439C76.3981 50.1496 76.2904 47.2142 76.7202 45.5849C76.8188 45.2111 76.871 44.8229 76.871 44.4261C76.871 43.3388 76.3272 39.5332 71.0704 39.5332H55.4874C54.3828 39.5332 53.4874 40.4286 53.4874 41.5332V56.3799C53.4874 57.4844 54.3778 58.3799 55.4824 58.3799C58.9363 58.3799 66.133 58.3799 71.0704 58.3799C76.871 58.3799 77.2335 54.7555 77.2335 53.1246C77.1895 52.6403 77.092 52.1775 76.9436 51.7439ZM59.1067 45.3322C59.1067 44.2312 59.9976 43.3388 61.0985 43.3388C63.3577 43.3388 67.0356 43.3388 69.4389 43.3388C70.4992 43.3388 71.3873 44.0277 71.5991 45.0697C71.6101 45.1235 71.6142 45.1131 71.6142 45.1681V45.1681C71.6142 45.2337 71.6218 45.3645 71.6301 45.4296C71.7434 46.3143 71.0317 47.3256 69.9828 47.3256C69.8016 47.3256 69.8015 47.3256 69.6203 47.3256C66.9206 47.3256 63.3088 47.3256 61.0982 47.3256C59.9973 47.3256 59.1067 46.4331 59.1067 45.3322V45.3322ZM69.8015 54.5743C69.8015 54.5743 69.8015 54.5743 69.8015 54.5743C66.8473 54.5743 63.277 54.5743 61.099 54.5743C59.9981 54.5743 59.1067 53.6818 59.1067 52.5809V52.5809C59.1067 51.48 59.9967 50.5875 61.0976 50.5875C63.4428 50.5875 67.3078 50.5875 69.6203 50.5875C70.6671 50.5875 71.714 51.259 71.9526 52.4406C71.9713 52.5334 71.9767 52.6284 71.9767 52.723V52.7621C71.9767 53.7523 71.2251 54.5922 70.2694 54.7343C70.1123 54.7577 69.9603 54.5743 69.8015 54.5743V54.5743Z" fill="#1A1A1A"/>
<path d="M129.137 53.7322C128.518 52.2824 128.386 49.8287 129.043 48.3958C129.352 47.7223 129.551 46.9933 129.62 46.2383C129.62 42.6139 128.169 39.5332 122.913 39.5332H108.055C106.95 39.5332 106.055 40.4286 106.055 41.5332V56.3799C106.055 57.4844 106.95 58.3799 108.055 58.3799H109.674C110.779 58.3799 111.674 57.4844 111.674 56.3799V54.5809C111.674 53.4763 112.569 52.5809 113.674 52.5809C115.965 52.5809 119.679 52.5809 121.825 52.5809C123.275 52.7621 124.544 53.8494 124.544 55.4804V56.5611C124.544 57.6657 125.44 58.5611 126.544 58.5611H127.62C128.724 58.5611 129.62 57.6657 129.62 56.5611V55.6616C129.558 54.9859 129.393 54.331 129.137 53.7322ZM122.006 48.9565C119.43 48.9565 115.869 48.9565 113.672 48.9565C112.568 48.9565 111.674 48.0611 111.674 46.9565V45.1576C111.674 44.053 112.568 43.1576 113.673 43.1576C115.932 43.1576 119.605 43.1576 122.006 43.1576C123.456 43.1576 124.363 44.7885 124.363 46.2383C124.544 47.688 123.456 48.7753 122.006 48.9565Z" fill="#1A1A1A"/>
<mask id="path-3-inside-1_285_943" fill="white">
<path d="M-nan -nanL87.2039 39.3516L78.6409 55.2498C77.9232 56.5823 78.8882 58.1982 80.4017 58.1982H81.5117C82.2293 58.1982 82.8919 57.8137 83.2481 57.1907L84.2714 55.4002C84.6275 54.7771 85.2902 54.3926 86.0078 54.3926H95.6011C96.345 54.3926 97.0274 54.8055 97.3726 55.4644L98.2434 57.1264C98.5887 57.7853 99.2711 58.1982 100.015 58.1982H101.075C102.589 58.1982 103.554 56.5823 102.836 55.2498L94.8397 40.4032C94.4908 39.7555 93.8145 39.3516 93.0788 39.3516H87.2039L-nan -nanL-nan -nanZM90.2321 50.4059C88.709 50.4059 87.7449 48.7713 88.4817 47.4383L88.938 46.6128C89.6903 45.2519 91.6398 45.2324 92.4191 46.5781L92.8972 47.4036C93.6693 48.7369 92.7072 50.4059 91.1664 50.4059H90.2321Z"/>
</mask>
<path d="M-nan -nanL87.2039 39.3516L78.6409 55.2498C77.9232 56.5823 78.8882 58.1982 80.4017 58.1982H81.5117C82.2293 58.1982 82.8919 57.8137 83.2481 57.1907L84.2714 55.4002C84.6275 54.7771 85.2902 54.3926 86.0078 54.3926H95.6011C96.345 54.3926 97.0274 54.8055 97.3726 55.4644L98.2434 57.1264C98.5887 57.7853 99.2711 58.1982 100.015 58.1982H101.075C102.589 58.1982 103.554 56.5823 102.836 55.2498L94.8397 40.4032C94.4908 39.7555 93.8145 39.3516 93.0788 39.3516H87.2039L-nan -nanL-nan -nanZM90.2321 50.4059C88.709 50.4059 87.7449 48.7713 88.4817 47.4383L88.938 46.6128C89.6903 45.2519 91.6398 45.2324 92.4191 46.5781L92.8972 47.4036C93.6693 48.7369 92.7072 50.4059 91.1664 50.4059H90.2321Z" fill="#1A1A1A"/>
<path d="M92.8972 47.4036L93.7625 46.9024L92.8972 47.4036ZM92.4191 46.5781L93.2845 46.077L92.4191 46.5781ZM94.8397 40.4032L95.7201 39.929L94.8397 40.4032ZM102.836 55.2498L103.717 54.7756L102.836 55.2498ZM98.2434 57.1264L97.3576 57.5905L98.2434 57.1264ZM97.3726 55.4644L96.4868 55.9285L97.3726 55.4644ZM84.2714 55.4002L85.1396 55.8964L84.2714 55.4002ZM83.2481 57.1907L84.1162 57.6869L83.2481 57.1907ZM86.3235 38.8774L77.7604 54.7756L79.5213 55.724L88.0843 39.8258L86.3235 38.8774ZM80.4017 59.1982H81.5117V57.1982H80.4017V59.1982ZM84.1162 57.6869L85.1396 55.8964L83.4032 54.904L82.3799 56.6944L84.1162 57.6869ZM86.0078 55.3926H95.6011V53.3926H86.0078V55.3926ZM96.4868 55.9285L97.3576 57.5905L99.1292 56.6623L98.2584 55.0003L96.4868 55.9285ZM100.015 59.1982H101.075V57.1982H100.015V59.1982ZM103.717 54.7756L95.7201 39.929L93.9593 40.8774L101.956 55.724L103.717 54.7756ZM93.0788 38.3516H87.2039V40.3516H93.0788V38.3516ZM89.3569 47.9221L89.8132 47.0966L88.0628 46.129L87.6065 46.9545L89.3569 47.9221ZM91.5538 47.0793L92.0318 47.9047L93.7625 46.9024L93.2845 46.077L91.5538 47.0793ZM91.1664 49.4059H90.2321V51.4059H91.1664V49.4059ZM92.0318 47.9047C92.4179 48.5714 91.9368 49.4059 91.1664 49.4059V51.4059C93.4776 51.4059 94.9208 48.9024 93.7625 46.9024L92.0318 47.9047ZM89.8132 47.0966C90.1894 46.4161 91.1641 46.4064 91.5538 47.0793L93.2845 46.077C92.1156 44.0585 89.1913 44.0876 88.0628 46.129L89.8132 47.0966ZM87.6065 46.9545C86.5013 48.954 87.9475 51.4059 90.2321 51.4059V49.4059C89.4706 49.4059 88.9885 48.5886 89.3569 47.9221L87.6065 46.9545ZM95.7201 39.929C95.1968 38.9574 94.1824 38.3516 93.0788 38.3516V40.3516C93.4467 40.3516 93.7848 40.5535 93.9593 40.8774L95.7201 39.929ZM101.075 59.1982C103.346 59.1982 104.793 56.7743 103.717 54.7756L101.956 55.724C102.315 56.3903 101.832 57.1982 101.075 57.1982V59.1982ZM97.3576 57.5905C97.8755 58.5789 98.8991 59.1982 100.015 59.1982V57.1982C99.643 57.1982 99.3018 56.9918 99.1292 56.6623L97.3576 57.5905ZM95.6011 55.3926C95.973 55.3926 96.3142 55.5991 96.4868 55.9285L98.2584 55.0003C97.7406 54.0119 96.7169 53.3926 95.6011 53.3926V55.3926ZM85.1396 55.8964C85.3177 55.5849 85.649 55.3926 86.0078 55.3926V53.3926C84.9314 53.3926 83.9374 53.9694 83.4032 54.904L85.1396 55.8964ZM81.5117 59.1982C82.5881 59.1982 83.5821 58.6215 84.1162 57.6869L82.3799 56.6944C82.2018 57.006 81.8705 57.1982 81.5117 57.1982V59.1982ZM77.7604 54.7756C76.6839 56.7743 78.1315 59.1982 80.4017 59.1982V57.1982C79.645 57.1982 79.1624 56.3903 79.5213 55.724L77.7604 54.7756Z" fill="white" mask="url(#path-3-inside-1_285_943)"/>
<path d="M152.284 39.3516C151.18 39.3516 150.284 40.2436 150.284 41.3482C150.284 44.123 150.284 49.2009 150.284 52.7617C150.284 53.4866 149.922 54.3926 149.016 54.3926H139.473C139.31 54.3926 139.147 54.4213 138.984 54.427C138.425 54.4467 137.904 54.0654 137.675 53.5383C137.61 53.3883 137.596 53.2227 137.596 53.0591C137.596 53.0291 137.596 52.9929 137.596 52.9429C137.596 49.822 137.543 46.1761 137.523 43.4461C137.512 41.9327 135.007 39.3516 133.494 39.3516V39.3516C132.556 39.3516 131.795 40.1086 131.795 41.0468C131.795 43.9455 131.795 49.9641 131.795 54.3926C131.795 57.2921 134.877 58.3795 138.321 58.3795C143.215 58.3795 145.934 58.3795 151.372 58.3795C154.272 58.3795 156.085 56.7485 156.085 54.3926C156.085 50.6138 156.085 44.4927 156.085 41.3514C156.085 40.2468 155.19 39.3516 154.085 39.3516H152.284Z" fill="#1A1A1A"/>
<path d="M21.2212 46.6026C16.6895 46.4214 11.2514 46.4214 7.80732 46.2402C5.99464 46.2402 5.99471 42.6158 7.98866 42.6158H18.321C18.4864 42.6158 18.633 42.637 18.7629 42.6747C19.8239 42.9821 20.6665 44.2468 21.7711 44.2468H22.8466C23.9511 44.2468 24.9433 43.3384 24.7138 42.258C24.3839 40.7047 23.3622 38.8102 20.3149 38.8102H5.26963C3.09442 38.629 1.28176 40.0787 1.10049 42.0721V46.0589C1.10049 48.596 3.45697 49.8645 6.53853 50.0457C11.1575 50.2233 14.0353 50.2269 17.561 50.3976C17.7043 50.4045 17.8484 50.3918 17.9918 50.3863C18.9479 50.3493 19.8481 51.1134 19.9439 52.055C19.9551 52.1646 19.9641 52.2749 19.9716 52.3849C20.0416 53.4147 19.1723 54.3949 18.1396 54.3949C17.9584 54.3949 17.9583 54.3949 17.7771 54.3949C14.1517 54.3949 11.9765 54.3949 8.16988 54.3949C7.08227 54.3949 5.99464 53.4889 5.99464 52.4016V52.4016C5.99464 52.3015 5.9135 52.2204 5.81341 52.2204H2.36055C1.49975 52.2204 0.684336 52.7963 0.824888 53.6456C0.837566 53.7222 0.853137 53.7972 0.8716 53.8699C0.899382 53.9792 0.926873 54.0889 0.947796 54.1998C1.37691 56.4737 3.33606 58.2049 5.81342 58.3818H20.6774C22.7979 58.5584 24.746 57.1853 25.1787 55.1016C25.2011 54.9937 25.2091 54.8832 25.2091 54.7731C25.2091 54.7219 25.2091 54.6772 25.2091 54.5762C25.2091 54.5762 25.2091 54.5762 25.2091 54.5762C25.2091 54.5762 25.2091 50.7706 25.2091 50.5894C25.2091 48.2336 23.3964 46.6026 21.2212 46.6026Z" fill="#1A1A1A"/>
<path d="M47.6935 39.3516C46.5889 39.3516 45.6935 40.2436 45.6935 41.3482C45.6935 44.123 45.6935 49.2009 45.6935 52.7617C45.6935 53.4866 45.3309 54.3926 44.4246 54.3926H34.4549C33.7886 54.3926 33.1225 53.9337 32.8781 53.2969C32.835 53.1845 32.8235 53.0633 32.8235 52.9429V52.9429C32.8235 48.9636 32.8235 44.0456 32.8235 41.351C32.8235 40.2465 31.9281 39.3516 30.8235 39.3516H29.2041C28.0996 39.3516 27.2041 40.2456 27.2041 41.3502C27.2041 44.3491 27.2041 50.1132 27.2041 54.3926C27.2041 57.2921 30.2857 58.3795 33.7298 58.3795C38.6241 58.3795 41.343 58.3795 46.7811 58.3795C49.6814 58.3795 51.6754 56.7485 51.4941 54.3926C51.4941 50.6138 51.4941 44.4927 51.4941 41.3514C51.4941 40.2468 50.5987 39.3516 49.4941 39.3516H47.6935Z" fill="#1A1A1A"/>
<path d="M60.9191 5.64564C55.6623 8.72635 52.3995 12.8944 52.3995 17.2436C52.3995 21.5928 55.6623 25.5796 60.9191 28.6603C72.7015 35.1842 87.203 35.1842 98.9854 28.6603C104.242 25.5796 107.505 21.4116 107.505 17.2436C107.505 13.0756 104.242 8.72635 98.9854 5.64564C87.0217 -0.696985 72.8828 -0.696985 60.9191 5.64564ZM106.599 17.2436C106.599 21.2304 103.517 25.036 98.4415 27.9355C86.8403 34.2781 72.8827 34.2781 61.2815 27.9355C56.3873 25.036 53.3058 21.0492 53.3058 17.2436C53.3058 13.438 56.3874 9.27002 61.4629 6.37053C73.064 0.0279031 87.0217 0.0279031 98.6228 6.37053C103.336 9.27002 106.599 13.2568 106.599 17.2436Z" fill="#1A1A1A"/>
<path d="M71.5483 9.60111C70.8427 7.95508 68.4954 7.99499 67.8462 9.66406L67.4754 10.6173C67.2302 11.2474 66.6834 11.711 66.0217 11.8497L64.8367 12.0981C62.7337 12.5389 62.7107 15.5333 64.8066 16.0065L66.0624 16.29C66.7014 16.4342 67.2292 16.8822 67.4754 17.4893L67.9481 18.6548C68.6231 20.3194 70.9799 20.3194 71.6549 18.6548L72.1198 17.5083C72.3702 16.8907 72.9119 16.4385 73.5642 16.3022L75.2242 15.9554C77.3488 15.5116 77.3443 12.4763 75.2184 12.0388L73.3626 11.6568C72.7215 11.5248 72.1855 11.0875 71.9276 10.4859L71.5483 9.60111Z" fill="#1A1A1A"/>
<path d="M83.9324 17.1234C83.8248 17.4246 83.5667 17.6502 83.2545 17.7196V17.7196C82.2185 17.9497 82.1978 19.435 83.2337 19.6651V19.6651C83.5611 19.7379 83.8306 19.9713 83.9483 20.2853L83.9904 20.3973C84.2936 21.2057 85.4327 21.2181 85.7534 20.4165V20.4165C85.8672 20.1321 86.1117 19.9205 86.4094 19.8487L86.4846 19.8305C87.6104 19.5588 87.5488 17.9412 86.4147 17.7066V17.7066C86.1139 17.6444 85.8546 17.447 85.7172 17.1723L85.6411 17.0202C85.2746 16.2873 84.2081 16.3517 83.9324 17.1234V17.1234Z" fill="#1A1A1A"/>
<path d="M98.5929 17.1129C98.2471 16.3062 97.1157 16.273 96.7232 17.0579L96.6604 17.1834C96.5261 17.4519 96.2762 17.6471 95.9837 17.7145V17.7145C94.9502 17.953 94.9251 19.4305 95.9586 19.669V19.669C96.2667 19.7401 96.5231 19.9527 96.6499 20.2424L96.7522 20.4762C97.1107 21.2954 98.2793 21.2768 98.6114 20.4465V20.4465C98.7328 20.1433 98.9934 19.9177 99.3109 19.8411L99.3894 19.8221C100.507 19.5525 100.46 17.9496 99.334 17.7168V17.7168C99.0039 17.6485 98.7257 17.4227 98.5929 17.1129V17.1129Z" fill="#1A1A1A"/>
<path d="M93.3639 12.313C93.6659 13.1685 94.8779 13.1746 95.1799 12.3191V12.3191C95.2921 12.0015 95.564 11.7653 95.8939 11.6971V11.6971C96.951 11.4784 96.9672 9.96507 95.91 9.74641L95.837 9.73131C95.5361 9.66908 95.2804 9.47243 95.143 9.19766L95.0669 9.04562C94.7004 8.31269 93.6339 8.3771 93.3582 9.14883V9.14883C93.2506 9.45002 92.9923 9.67567 92.68 9.74503V9.74503C91.6446 9.97506 91.6261 11.461 92.6615 11.691V11.691C92.9864 11.7632 93.2531 11.9992 93.3639 12.313V12.313Z" fill="#1A1A1A"/>
<path d="M90.2668 23.4844C89.9232 22.683 88.7935 22.6651 88.4247 23.4552L88.3165 23.6872C88.1859 23.9669 87.9338 24.1709 87.633 24.2403V24.2403C86.5963 24.4795 86.5963 25.9559 87.633 26.195V26.195C87.9338 26.2644 88.1859 26.4685 88.3165 26.7482L88.3738 26.8711C88.7547 27.6871 89.9262 27.6543 90.2607 26.8181V26.8181C90.3889 26.4977 90.6718 26.2624 91.0097 26.1925V26.1925C92.1319 25.9604 92.1792 24.3626 91.0652 24.0937L90.9576 24.0678C90.6482 23.9931 90.3922 23.7769 90.2668 23.4844V23.4844Z" fill="#1A1A1A"/>
<path d="M76.3276 24.4017C76.0069 23.6 74.8679 23.6124 74.5646 24.4208L74.5087 24.5698C74.3996 24.8607 74.1508 25.0769 73.8474 25.1443L73.7971 25.1554C72.8308 25.3701 72.8554 26.7559 73.8287 26.9361V26.9361C74.1421 26.9941 74.4022 27.2121 74.5142 27.5105L74.5704 27.6604C74.8716 28.4633 76.003 28.4756 76.3215 27.6794V27.6794C76.4386 27.3868 76.6946 27.1724 77.0032 27.1086L77.0739 27.094C78.1961 26.8619 78.2222 25.2684 77.1082 24.9996L76.9837 24.9695C76.6859 24.8977 76.4414 24.686 76.3276 24.4017V24.4017Z" fill="#1A1A1A"/>
</svg>
