<svg width="82" height="68" viewBox="0 0 82 68" fill="none" xmlns="http://www.w3.org/2000/svg">
<path d="M55.3042 60.2722C55.3042 56.2854 52.0414 53.0234 48.0535 53.0234C44.0656 53.0234 40.8028 56.2854 40.8028 60.2722C40.8028 64.259 44.0656 67.5209 48.0535 67.5209C52.0414 67.5209 55.3042 64.259 55.3042 60.2722ZM44.0565 60.4261C44.0607 60.3237 44.0608 60.2206 44.0563 60.1182C43.956 57.8301 45.5673 55.919 47.8723 55.7417H48.0535C50.3585 55.919 52.1432 57.8301 52.0505 60.1182C52.0463 60.2206 52.0463 60.3237 52.0505 60.4261C52.1411 62.6632 50.4371 64.54 48.2069 64.7882C48.1051 64.7995 48.0019 64.7995 47.9001 64.7882C45.6699 64.5399 43.9659 62.6632 44.0565 60.4261Z" fill="#1A1A1A"/>
<path d="M63.642 58.1054C63.642 57.0008 64.5374 56.1054 65.642 56.1054H66.5427C67.2433 56.1054 67.8112 55.5375 67.8112 54.8369V54.8369C67.8112 54.1363 67.2433 53.5684 66.5427 53.5684H57.4785C56.7779 53.5684 56.21 54.1363 56.21 54.8369V54.8369C56.21 55.5375 56.7779 56.1054 57.4785 56.1054H58.5605C59.6651 56.1054 60.5605 57.0008 60.5605 58.1054V65.619C60.5605 66.4699 61.2503 67.1597 62.1012 67.1597V67.1597C62.9521 67.1597 63.642 66.4699 63.642 65.619V58.1054Z" fill="#1A1A1A"/>
<path d="M70.9282 65.3173C71.2369 64.568 71.9671 64.079 72.7775 64.079H75.6426C76.4905 64.079 77.2463 64.6137 77.5285 65.4132L77.7575 66.0619C77.9898 66.7198 78.6117 67.1597 79.3093 67.1597V67.1597C80.4817 67.1597 81.2781 65.9687 80.8301 64.8853L76.6622 54.8042C76.3529 54.0562 75.6233 53.5684 74.8139 53.5684H73.6656C72.8644 53.5684 72.1406 54.0464 71.8261 54.7833L67.5307 64.8478C67.0633 65.943 67.8668 67.1597 69.0577 67.1597V67.1597C69.7304 67.1597 70.3366 66.7538 70.5928 66.1318L70.9282 65.3173ZM73.1556 60.0234C73.5622 58.9257 75.1148 58.9257 75.5215 60.0234V60.0234C75.8267 60.8473 75.2172 61.7232 74.3385 61.7232V61.7232C73.4598 61.7232 72.8503 60.8473 73.1556 60.0234V60.0234Z" fill="#1A1A1A"/>
<path d="M4.36848 65.619C4.36848 66.4699 5.05829 67.1597 5.90921 67.1597V67.1597C6.76013 67.1597 7.44995 66.4699 7.44995 65.619V58.1054C7.44995 57.0008 8.34538 56.1054 9.44995 56.1054H10.3507C11.0513 56.1054 11.6192 55.5375 11.6192 54.8369V54.8369C11.6192 54.1363 11.0513 53.5684 10.3507 53.5684H1.46774C0.767154 53.5684 0.199219 54.1363 0.199219 54.8369V54.8369C0.199219 55.5375 0.767155 56.1054 1.46774 56.1054H2.36848C3.47304 56.1054 4.36848 57.0008 4.36848 58.1054V65.619Z" fill="#1A1A1A"/>
<path d="M26.8462 60.2722C26.8462 56.2854 23.5834 53.0234 19.5955 53.0234C15.6076 53.0234 12.3447 56.2854 12.3447 60.2722C12.3447 64.259 15.6076 67.5209 19.5955 67.5209C23.5834 67.5209 26.8462 64.259 26.8462 60.2722ZM15.606 60.2931C15.607 60.2792 15.607 60.2651 15.606 60.2512C15.4417 57.9698 17.1463 56.033 19.234 55.761C19.2435 55.7597 19.5858 55.7417 19.5955 55.7417V55.7417C21.9005 55.919 23.6852 57.8301 23.5924 60.1182C23.5883 60.2206 23.5883 60.3237 23.5924 60.4261C23.6831 62.6632 21.9791 64.54 19.7488 64.7882C19.6471 64.7995 19.5439 64.7995 19.4421 64.7882C17.1678 64.535 15.4407 62.5885 15.606 60.2931Z" fill="#1A1A1A"/>
<path d="M33.7329 67.1597V67.1597C34.634 67.1597 35.3644 66.4293 35.3644 65.5282V62.4824C35.3644 62.1048 35.4713 61.7349 35.6727 61.4155L39.223 55.7855C39.8302 54.8227 39.1383 53.5684 38 53.5684V53.5684C37.4898 53.5684 37.0174 53.8372 36.7568 54.2759L35.4993 56.3932C34.7137 57.716 32.7911 57.6935 32.0367 56.3527L30.8977 54.3284C30.6336 53.8589 30.1368 53.5684 29.5981 53.5684V53.5684C28.4138 53.5684 27.702 54.8825 28.3491 55.8744L31.9579 61.4063C32.1699 61.7313 32.2828 62.111 32.2828 62.4991V65.7096C32.2828 66.5105 32.932 67.1597 33.7329 67.1597V67.1597Z" fill="#1A1A1A"/>
<path d="M40.0771 47.2245C60.7417 47.2245 77.5996 36.7139 77.5996 23.8474C77.5996 10.9809 60.7417 0.289062 40.0771 0.289062C19.4125 0.289062 2.55469 10.7997 2.55469 23.8474C2.55469 36.8951 19.4125 47.2245 40.0771 47.2245ZM40.0771 1.37638C60.1979 1.37638 76.3307 11.3433 76.3307 23.6662C76.3307 35.989 60.0166 45.956 40.0771 45.956C20.1376 45.956 3.64225 35.989 3.64225 23.6662C3.64225 11.3433 20.1376 1.37638 40.0771 1.37638Z" fill="#1A1A1A"/>
<path d="M30.9839 17.6813C31.004 17.6847 31.0241 17.6896 31.0434 17.6961L31.0715 17.7054C31.311 17.7852 31.5583 17.607 31.5583 17.3545V17.3545C31.5583 17.3342 31.56 17.3137 31.5633 17.2936C32.472 11.8719 34.4629 7.71567 36.815 5.72599V5.72599C37.2243 5.4191 36.9614 4.76901 36.4524 4.8199V4.8199C27.7515 5.36355 21.2259 7.71937 20.1383 10.8001C19.957 11.1625 19.957 11.3437 19.957 11.7062C19.957 12.1605 20.0837 12.6149 20.2311 12.9635C20.286 13.0933 20.3627 13.2123 20.4557 13.3181C21.9954 15.0721 25.7242 16.8007 30.9839 17.6813ZM21.4036 10.9509C21.4128 10.8159 21.4293 10.7345 21.4893 10.6132C22.3493 8.87276 25.7776 7.34688 30.4245 6.41032C32.1427 6.06402 33.3323 8.07679 32.5665 9.65343C31.8622 11.1033 31.3209 12.6348 30.9818 14.2348C30.7365 15.392 29.6415 16.2309 28.4949 15.9403C24.9463 15.0411 22.5013 13.7999 21.5885 12.431C21.5111 12.2762 21.4667 12.1544 21.4272 12.0375C21.316 11.7088 21.38 11.2971 21.4036 10.9509V10.9509Z" fill="#1A1A1A"/>
<path d="M35.0025 17.5033L34.9532 17.7007C34.8862 17.9686 35.0889 18.2282 35.3651 18.2282V18.2282C36.8152 18.4094 38.4467 18.4094 39.8968 18.4094C41.347 18.4094 42.9784 18.4094 44.4285 18.2282V18.2282C44.7047 18.2282 44.9074 17.9686 44.8404 17.7007L44.7911 17.5033C43.8847 12.6105 42.0721 9.71094 39.7156 9.71094C37.3591 9.71094 35.9089 12.6105 35.0025 17.5033ZM40.078 10.9795C41.3418 10.9795 42.4968 12.3931 43.2902 14.7991C43.6832 15.9907 42.7234 17.1841 41.4715 17.267C41.007 17.2978 40.5425 17.3221 40.078 17.3221C39.505 17.3221 38.9319 17.3221 38.3589 17.3054C37.2184 17.2722 36.4339 16.1969 36.7683 15.106C37.563 12.5137 38.7615 10.9795 40.078 10.9795Z" fill="#1A1A1A"/>
<path d="M48.5921 17.113C48.5955 17.1331 48.5972 17.1536 48.5972 17.174V17.174C48.5972 17.4264 48.8445 17.6046 49.0839 17.5248L49.1119 17.5155C49.1312 17.5091 49.1513 17.5041 49.1715 17.5007C54.4799 16.6119 58.2284 14.859 59.4017 12.9187C59.4514 12.8364 59.5036 12.7563 59.5562 12.6758C59.9916 12.0102 60.007 11.2072 59.8623 10.3968C59.8457 10.3036 59.8213 10.2127 59.7858 10.125C58.5657 7.10918 52.2764 4.81273 43.5217 4.27688V4.27688C43.0127 4.226 42.7498 4.87609 43.1591 5.18297V5.18297C45.6922 7.53441 47.6834 11.6913 48.5921 17.113ZM58.6389 10.5217C58.7247 10.7017 58.755 10.9046 58.8441 11.083C58.8876 11.1701 58.9295 11.2573 58.9295 11.3444C58.9295 11.5911 58.8455 11.8377 58.7348 12.0272C58.641 12.1877 58.5252 12.3347 58.4181 12.4866C57.4935 13.798 54.9635 15.0811 51.4904 15.8629C50.4047 16.1073 49.3835 15.3351 49.1354 14.2503C48.786 12.7229 48.2838 11.2162 47.6169 9.77774C46.8572 8.13929 48.1435 5.98222 49.9088 6.36308C54.5379 7.36174 57.8367 8.83939 58.6389 10.5217Z" fill="#1A1A1A"/>
<path d="M36.27 43.0566L36.42 43.0716C36.9312 43.1227 37.204 42.4849 36.8138 42.1506V42.1506C33.3697 39.2511 31.1945 32.1836 31.1945 24.0288V22.5558C31.1945 22.245 30.9956 21.9691 30.7008 21.8708V21.8708C30.6675 21.8597 30.633 21.851 30.5985 21.8448C22.4681 20.3897 16.5102 16.9527 15.7867 12.9744L15.7832 12.9569C15.7008 12.5449 15.2166 12.3599 14.8804 12.612V12.612C11.255 15.3303 9.07982 19.4983 8.89856 24.0288C8.71729 33.8145 20.4997 41.9693 36.27 43.0566ZM12.8891 16.1914C13.7418 15.0738 15.466 15.4833 16.3923 16.5408C18.7334 19.2134 23.1311 21.3629 28.8569 22.5522C29.4734 22.6803 29.9256 23.8475 29.9256 23.8475V23.8475C29.9256 23.8475 29.9256 23.8475 29.9256 23.8475C29.9256 29.0659 30.7777 33.8583 32.3066 37.5239C33.0001 39.1864 31.6722 41.3986 29.9104 41.0237C18.1602 38.523 9.98612 31.6986 9.98612 24.0288C10.1213 21.1902 11.1642 18.4524 12.8891 16.1914Z" fill="#1A1A1A"/>
<path d="M45.6957 23.3045V22.9422C45.6957 22.6419 45.4523 22.3984 45.1519 22.3984V22.3984C43.5205 22.5797 41.889 22.5797 40.0763 22.5797C38.2636 22.5797 36.6323 22.5797 35.0008 22.3984V22.3984C34.7005 22.3984 34.4571 22.6419 34.4571 22.9422V23.3045C34.4571 30.9157 36.8135 36.8959 40.0763 36.8959C43.3392 36.8959 45.6957 30.9157 45.6957 23.3045ZM40.0763 35.6274C38.143 35.6274 36.2097 31.9054 35.6763 25.9882C35.5665 24.77 36.6388 23.7958 37.8614 23.829C38.5719 23.8482 39.3038 23.8482 40.0763 23.8482C40.8483 23.8482 41.5797 23.8482 42.2898 23.829C43.5129 23.7959 44.5853 24.7707 44.4718 25.989C43.9322 31.7837 42.0043 35.6274 40.0763 35.6274Z" fill="#1A1A1A"/>
<path d="M49.8653 21.8541C49.4391 21.9606 49.1402 22.3435 49.1402 22.7828V24.0288C49.1402 32.3648 46.965 39.2511 43.5209 42.1506V42.1506C43.1307 42.4849 43.4034 43.1227 43.9147 43.0716L44.0647 43.0566C59.835 41.9693 71.6174 33.6333 71.6174 24.0288C71.4362 19.4983 69.261 15.3303 65.6356 12.612V12.612C65.2994 12.3599 64.8152 12.5449 64.7328 12.957L64.7293 12.9744C63.8229 16.78 58.0223 20.4044 49.8653 21.8541V21.8541ZM64.0657 16.3908C64.9245 15.4103 66.4695 15.0142 67.3221 16.0001C69.2548 18.2349 70.3485 21.1131 70.3485 24.2099C70.3485 31.8798 62.1745 38.7043 50.4243 41.2049C48.6625 41.5799 47.3428 39.3731 48.0405 37.7125C49.5616 34.0919 50.4091 29.3569 50.4091 24.0288V24.0288C50.4091 23.3952 50.8551 22.8504 51.4719 22.7058C57.2385 21.3544 61.7014 19.0904 64.0657 16.3908Z" fill="#1A1A1A"/>
</svg>
