<svg width="90" height="90" viewBox="0 0 90 90" fill="none" xmlns="http://www.w3.org/2000/svg">
<path d="M52.9216 14.7541C53.3273 13.6496 52.6967 12.4297 51.5417 12.2053C47.4347 11.4072 43.1663 11.4108 38.9601 12.216C37.8034 12.4374 37.1633 13.6535 37.5616 14.7617L43.2958 30.7131C43.9278 32.4713 46.4111 32.4798 47.0553 30.7261L52.9216 14.7541Z" fill="#1A1A1A"/>
<path d="M78.3294 44.7733C78.3294 42.5115 78.096 40.2497 77.6293 38.021C77.2527 36.223 74.9392 36.1774 74.2841 37.8936L62.2695 69.3714C61.6125 71.0928 63.3799 72.602 64.8604 71.5052C73.269 65.2762 78.3294 55.4907 78.3294 44.7733Z" fill="#1A1A1A"/>
<path d="M63.8517 17.4107C62.8251 16.7087 61.444 17.2114 61.0176 18.3797L52.5262 41.6461C52.2381 42.4354 51.4875 42.9605 50.6474 42.9605H39.6724C38.8307 42.9605 38.079 42.4334 37.7922 41.6421L29.278 18.1557C28.8596 17.0016 27.5065 16.4903 26.4819 17.1665C24.0216 18.7902 21.824 20.7699 19.8221 23.0387C19.3413 23.5836 19.2184 24.3529 19.4807 25.0306L31.14 55.1548C31.8006 56.8616 34.2169 56.8581 34.8724 55.1493L37.5964 48.0496C37.893 47.2764 38.6355 46.766 39.4636 46.766H50.1279C50.956 46.766 51.6985 47.2764 51.9952 48.0496L54.7098 55.125C55.3665 56.8368 57.7886 56.8363 58.4446 55.1242L70.1221 24.6499C70.3781 23.9818 70.2615 23.2247 69.7906 22.6862C68.074 20.7231 66.0943 18.9442 63.8517 17.4107Z" fill="#1A1A1A"/>
<path d="M45.1578 0.554688C20.6866 0.554688 0.74707 20.3074 0.74707 44.9531C0.74707 69.5987 20.5053 89.3515 45.1578 89.3515C69.629 89.3515 89.5685 69.5987 89.5685 44.9531C89.3872 20.3074 69.629 0.554688 45.1578 0.554688ZM45.1578 83.5525C23.7681 83.5525 6.36635 66.1556 6.54762 44.7719C6.54762 23.3881 23.9493 6.17244 45.339 6.17244C66.7286 6.17244 84.1304 23.5694 83.9491 44.9531C83.7679 66.1556 66.5474 83.3713 45.1578 83.5525Z" fill="#1A1A1A"/>
<path d="M46.6632 58.7217C46.0079 57.0071 43.5822 57.0071 42.9268 58.7217L36.3249 75.9943C36.2922 76.0799 36.2754 76.1708 36.2754 76.2624V76.2624C36.2754 76.6069 36.5097 76.9078 36.8448 76.988C39.5767 77.6421 42.4464 78.1172 45.1576 78.1172C47.7656 78.1172 50.227 77.8241 52.6737 77.238C53.1374 77.1269 53.423 76.6658 53.3295 76.1982V76.1982C53.3196 76.1487 53.3056 76.1001 53.2875 76.0529L46.6632 58.7217Z" fill="#1A1A1A"/>
<path d="M11.9863 44.7715C11.9863 55.0231 16.7677 64.4996 24.5847 70.8011C26.0475 71.9803 27.8717 70.4773 27.197 68.7237L15.7059 38.8549C15.0433 37.1328 12.7622 37.209 12.456 39.0286C12.1343 40.9408 11.9863 42.8808 11.9863 44.7715Z" fill="#1A1A1A"/>
</svg>
